<svg version="1.1" xmlns="http://www.w3.org/2000/svg" xmlns:xlink="http://www.w3.org/1999/xlink" width="183.78961" height="191.22118" viewBox="0,0,183.78961,191.22118"><g transform="translate(-148.10519,-83.57469)"><g data-paper-data="{&quot;isPaintingLayer&quot;:true}" fill-rule="nonzero" stroke="#000000" stroke-width="1.5" stroke-linecap="butt" stroke-linejoin="miter" stroke-miterlimit="10" stroke-dasharray="" stroke-dashoffset="0" style="mix-blend-mode: normal"><path d="M309.138,243.68832l-91.02445,-96.85899l21.82301,-20.50389l90.89814,97.03925z" data-paper-data="{&quot;index&quot;:null}" fill="#f1f1f1"/><path d="M189.82243,246.39946l46.87542,-50.97777l27.60392,25.38254l-46.87542,50.97776z" data-paper-data="{&quot;index&quot;:null}" fill="#f1f1f1"/><path d="M240.63691,273.84899l-21.65189,-65.78171l35.6201,-11.72426l21.65189,65.78171z" data-paper-data="{&quot;index&quot;:null}" fill="#f1f1f1"/><path d="M221.02868,211.53395v-15h38.53846v15z" data-paper-data="{&quot;index&quot;:null}" fill="#f1f1f1"/><path d="M212.52868,196.29716v-60.11321h59v60.11321z" data-paper-data="{&quot;index&quot;:null}" fill="#f1f1f1"/><path d="M149.16528,226.73887l90.89814,-97.03925l21.82301,20.50389l-91.02445,96.85899z" data-paper-data="{&quot;index&quot;:null}" fill="#f1f1f1"/><path d="M161.60429,224.56736c0,0 18.94569,-20.22567 36.8918,-39.38422c0.5358,-0.572 -2.40614,-4.32813 -2.40614,-4.32813l2.28526,-2.8693c0,0 4.13717,2.90979 4.75996,2.24492c6.73454,-7.18953 13.07017,-13.95319 17.89363,-19.10253c0.40397,-0.43127 -4.21167,-4.86503 -4.21167,-4.86503l3.48628,-3.34141c0,0 5.31536,3.30637 5.91675,2.66435c7.12835,-7.60994 19.06917,-21.08887 19.06917,-21.08887l4.58225,4.13375c0,0 -7.54664,7.35296 -13.4408,13.67961c-0.86121,0.92441 3.59027,4.69071 3.59027,4.69071l-3.95567,4.27073c0,0 -4.73052,-3.49159 -5.1416,-3.05035c-2.54356,2.73019 -5.08701,5.46027 -7.37914,7.92058c-0.58385,0.62669 2.41497,3.81388 2.41497,3.81388l-4.53618,5.2409c0,0 -3.19502,-3.34846 -3.82603,-2.67116c-7.94568,8.5287 -18.93463,20.32398 -28.74426,30.85339c-0.62962,0.67582 2.54797,4.38092 2.54797,4.38092l-2.48814,2.98894c0,0 -3.82192,-3.33171 -4.35565,-2.75882c-10.49841,11.26874 -18.72296,20.09676 -18.72296,20.09676z" data-paper-data="{&quot;index&quot;:null}" fill="#afec00"/><path d="M222.96629,136.67584l0.5,-52.34041l36.31382,0.52128l1.06915,51.99467z" data-paper-data="{&quot;index&quot;:null}" fill="#f1f1f1"/><path d="M260.02868,136.78395v-21.5h8.5v21.5z" data-paper-data="{&quot;index&quot;:null}" fill="#f1f1f1"/><path d="M254.61201,99.98395v-3.66667h4v3.66667z" data-paper-data="{&quot;index&quot;:null}" fill="#000000"/></g></g></svg>