<svg viewBox="0,0,60.5,197.70926" height="197.70926" width="60.5" xmlns:xlink="http://www.w3.org/1999/xlink" xmlns="http://www.w3.org/2000/svg" version="1.1"><g transform="translate(-209.75,-81.14)"><g style="mix-blend-mode: normal" stroke-dashoffset="0" stroke-dasharray="" stroke-miterlimit="10" stroke-linejoin="miter" stroke-linecap="butt" stroke-width="1.5" stroke="#000000" fill-rule="nonzero" data-paper-data="{&quot;isPaintingLayer&quot;:true}"><path fill="#f1f1f1" data-paper-data="{&quot;index&quot;:null}" d="M220,278.09926v-69.25343h37.5v69.25343z"></path><path fill="#f1f1f1" data-paper-data="{&quot;index&quot;:null}" d="M219,209.09926v-15h38.53846v15z"></path><path fill="#f1f1f1" data-paper-data="{&quot;index&quot;:null}" d="M210.5,193.86247v-60.11321h59v60.11321z"></path><path fill="#f1f1f1" data-paper-data="{&quot;index&quot;:null}" d="M223.62376,266.99112v-132.96273l29.94414,0.04521l-0.21542,132.91752z"></path><path fill="#afec00" data-paper-data="{&quot;index&quot;:null}" d="M231.21751,256.90254c0,0 0,-27.71312 0,-53.96408c0,-0.78375 -4.71492,-1.51384 -4.71492,-1.51384l-0.29372,-3.65637c0,0 5.00864,-0.70469 5.00864,-1.61569c0,-9.85106 0,-19.1186 0,-26.1742c0,-0.59092 -6.39969,-0.67136 -6.39969,-0.67136l0.26006,-4.82199c0,0 6.13963,-1.22071 6.13963,-2.1004c0,-10.42711 -0.5,-28.42752 -0.5,-28.42752l6.17021,-0.11569c0,0 -0.48096,10.52552 -0.45753,19.17231c0.00343,1.26341 5.827,0.96895 5.827,0.96895l0.03269,5.82112c0,0 -5.83942,0.68571 -5.83779,1.28877c0.01011,3.73143 0.02022,7.4627 0.02933,10.82527c0.00232,0.85652 4.36981,1.1325 4.36981,1.1325l0.27226,6.92603c0,0 -4.62093,-0.25955 -4.61843,0.66614c0.03159,11.6564 0.07528,27.77731 0.11428,42.16813c0.0025,0.92366 4.85452,1.45541 4.85452,1.45541l0.22744,3.88238c0,0 -5.067,0.18124 -5.06488,0.96423c0.04174,15.40128 0.07443,27.46677 0.07443,27.46677z"></path><path fill="#f1f1f1" data-paper-data="{&quot;index&quot;:null}" d="M220.93761,134.24115l0.5,-52.34041l36.31382,0.52128l1.06915,51.99467z"></path><path fill="#f1f1f1" data-paper-data="{&quot;index&quot;:null}" d="M258,134.34926v-21.5h8.5v21.5z"></path><path fill="#000000" data-paper-data="{&quot;index&quot;:null}" d="M252.58333,97.54926v-3.66667h4v3.66667z"></path></g></g></svg>