<svg version="1.1" xmlns="http://www.w3.org/2000/svg" xmlns:xlink="http://www.w3.org/1999/xlink" width="217.37499" height="132.3052"><defs><radialGradient cx="162.5961" cy="178.65965" r="33.17092" gradientUnits="userSpaceOnUse" id="color-1"><stop offset="0" stop-color="#979797"/><stop offset="1" stop-color="#666666"/></radialGradient><linearGradient x1="166.92228" y1="162.85327" x2="166.92228" y2="189.13257" gradientUnits="userSpaceOnUse" id="color-2"><stop offset="0" stop-color="#ece447"/><stop offset="1" stop-color="#c1bb3a"/></linearGradient><linearGradient x1="164.61759" y1="160.54858" x2="164.61759" y2="186.82788" gradientUnits="userSpaceOnUse" id="color-3"><stop offset="0" stop-color="#ece447"/><stop offset="1" stop-color="#c1bb3a"/></linearGradient></defs><g transform="translate(-129.85001,-89.52684)"><g data-paper-data="{&quot;isPaintingLayer&quot;:true}" fill="none" fill-rule="nonzero" stroke="none" stroke-width="none" stroke-linecap="butt" stroke-linejoin="miter" stroke-miterlimit="10" stroke-dasharray="" stroke-dashoffset="0" font-family="none" font-weight="none" font-size="none" text-anchor="none" style="mix-blend-mode: normal"><path d="M180.38901,210.78069v-60.78999c0,0 141.00958,0 154.93874,0c7.20669,0 11.89725,3.166 11.89725,12.02469c0,14.00683 0,21.88394 0,35.89077c0,8.86989 -3.60415,12.87453 -12.21771,12.87453c-14.30436,0 -154.61828,0 -154.61828,0z" data-paper-data="{&quot;origPos&quot;:null}" fill="#000000" stroke="none" stroke-width="0"/><path d="M197.15673,180.18942c0,18.31979 -14.67538,33.17092 -32.77836,33.17092c-18.10299,0 -32.77836,-14.85113 -32.77836,-33.17092c0,-18.31979 14.67538,-33.17092 32.77836,-33.17092c18.10299,0 32.77836,14.85113 32.77836,33.17092z" data-paper-data="{&quot;origPos&quot;:null}" fill="url(#color-1)" stroke="#000000" stroke-width="3.5"/><text transform="translate(199.90724,168.06035) scale(0.40867,0.40867)" font-size="40" xml:space="preserve" data-paper-data="{&quot;origPos&quot;:null}" fill="#ffffff" fill-rule="nonzero" stroke="none" stroke-width="1" stroke-linecap="butt" stroke-linejoin="miter" stroke-miterlimit="10" stroke-dasharray="" stroke-dashoffset="0" font-family="Sans Serif" font-weight="normal" text-anchor="start" style="mix-blend-mode: normal"><tspan x="0" dy="0">Farmer</tspan></text><text transform="translate(201.82997,181.38392) scale(0.24646,0.24646)" font-size="40" xml:space="preserve" data-paper-data="{&quot;origPos&quot;:null}" fill="#ffffff" fill-rule="nonzero" stroke="none" stroke-width="1" stroke-linecap="butt" stroke-linejoin="miter" stroke-miterlimit="10" stroke-dasharray="" stroke-dashoffset="0" font-family="Sans Serif" font-weight="normal" text-anchor="start" style="mix-blend-mode: normal"><tspan x="0" dy="0">Buy your first Candy Farm</tspan></text><g data-paper-data="{&quot;origPos&quot;:null}"><path d="M198.01164,197.27545c37.96911,0 89.7537,0 97.68987,0c4.24032,0 6.37975,0.76819 6.37975,5.58228c0,1.37926 -0.17224,10.75061 -0.14088,12.1295c0.05113,2.24869 -1.07557,4.66689 -4.31946,4.76653c-6.86018,0.2107 -61.67399,1.68787 -100.60609,1.24637c-2.152,-0.02441 -4.38607,-2.73462 -4.18671,-5.78165c0.10667,-1.63043 0,-7.83833 0,-11.96202c0,-3.9291 1.16692,-5.98101 5.18354,-5.98101z" data-paper-data="{&quot;origPos&quot;:null,&quot;index&quot;:null}" fill="#000000" stroke="#ffffff" stroke-width="1.5"/><text transform="translate(197.21417,213.82292) scale(0.39874,0.39874)" font-size="40" xml:space="preserve" data-paper-data="{&quot;origPos&quot;:null}" fill="#ffffff" fill-rule="nonzero" stroke="none" stroke-width="3" stroke-linecap="butt" stroke-linejoin="miter" stroke-miterlimit="10" stroke-dasharray="" stroke-dashoffset="0" font-family="Sans Serif" font-weight="normal" text-anchor="start" style="mix-blend-mode: normal"><tspan x="0" dy="0">Achievement</tspan></text></g><text transform="translate(165.96525,111.27684) scale(0.5,0.5)" font-size="40" xml:space="preserve" fill="none" fill-rule="nonzero" stroke="none" stroke-width="1" stroke-linecap="butt" stroke-linejoin="miter" stroke-miterlimit="10" stroke-dasharray="" stroke-dashoffset="0" font-family="Sans Serif" font-weight="normal" text-anchor="start" style="mix-blend-mode: normal"><tspan x="0" dy="0">£1</tspan></text><g data-paper-data="{&quot;origPos&quot;:null}" stroke="#605b00"><path d="M190.50626,189.46948c0,4.65181 -10.70975,8.42285 -23.9209,8.42285c-13.21115,0 -23.9209,-3.77104 -23.9209,-8.42285c0,-4.65181 10.70975,-8.42285 23.9209,-8.42285c13.21115,0 23.9209,3.77104 23.9209,8.42285z" data-paper-data="{&quot;origPos&quot;:null}" fill="#d1c93f" stroke-width="3"/><path d="M154.11954,186.07684v-18.94554c0,0 3.35248,-4.27802 13.47656,-4.27802c8.62854,0 12.12891,4.27802 12.12891,4.27802v18.94554c0,0 -2.71145,3.05573 -12.80273,3.05573c-8.66135,0 -12.80273,-3.05573 -12.80273,-3.05573z" data-paper-data="{&quot;origPos&quot;:null}" fill="url(#color-2)" stroke-width="2.5"/></g><g data-paper-data="{&quot;origPos&quot;:null}" stroke="#b0a700"><path d="M188.20157,187.16479c0,4.65181 -10.70975,8.42285 -23.9209,8.42285c-13.21115,0 -23.9209,-3.77104 -23.9209,-8.42285c0,-4.65181 10.70975,-8.42285 23.9209,-8.42285c13.21115,0 23.9209,3.77104 23.9209,8.42285z" data-paper-data="{&quot;origPos&quot;:null}" fill="#d1c93f" stroke-width="3"/><path d="M151.81485,183.77215v-18.94554c0,0 3.35248,-4.27802 13.47656,-4.27802c8.62854,0 12.12891,4.27802 12.12891,4.27802v18.94554c0,0 -2.71145,3.05573 -12.80273,3.05573c-8.66135,0 -12.80273,-3.05573 -12.80273,-3.05573z" data-paper-data="{&quot;origPos&quot;:null}" fill="url(#color-3)" stroke-width="2.5"/></g></g></g></svg>