<svg version="1.1" xmlns="http://www.w3.org/2000/svg" xmlns:xlink="http://www.w3.org/1999/xlink" width="195.39471" height="76.98551" viewBox="0,0,195.39471,76.98551"><g transform="translate(-151.83031,-148.76322)"><g data-paper-data="{&quot;isPaintingLayer&quot;:true}" fill="none" fill-rule="nonzero" stroke="none" stroke-width="none" stroke-linecap="none" stroke-linejoin="miter" stroke-miterlimit="10" stroke-dasharray="" stroke-dashoffset="0" font-family="none" font-weight="none" font-size="none" text-anchor="none" style="mix-blend-mode: normal"><path d="M180.38903,210.78072v-60.78999c0,0 141.00958,0 154.93874,0c7.20669,0 11.89725,3.166 11.89725,12.02469c0,14.00683 0,21.88394 0,35.89077c0,8.86989 -3.60415,12.87453 -12.21771,12.87453c-14.30436,0 -154.61828,0 -154.61828,0z" data-paper-data="{&quot;origPos&quot;:null}" fill="#000000" stroke="none" stroke-width="0" stroke-linecap="butt"/><path d="M210.15675,180.5148c0,15.9023 -12.66508,28.79367 -28.28822,28.79367c-15.62316,0 -28.28822,-12.89137 -28.28822,-28.79367c0,-15.9023 12.66508,-28.79367 28.28822,-28.79367c15.62316,0 28.28822,12.89137 28.28822,28.79367z" data-paper-data="{&quot;origPos&quot;:null}" fill="#78e7ef" stroke="none" stroke-width="0" stroke-linecap="butt"/><text transform="translate(212.00002,169.47053) scale(0.47603,0.47603)" font-size="40" xml:space="preserve" data-paper-data="{&quot;origPos&quot;:null}" fill="#ffffff" fill-rule="nonzero" stroke="none" stroke-width="1" stroke-linecap="butt" stroke-linejoin="miter" stroke-miterlimit="10" stroke-dasharray="" stroke-dashoffset="0" font-family="Sans Serif" font-weight="normal" text-anchor="start" style="mix-blend-mode: normal"><tspan x="0" dy="0">Candy Factory</tspan></text><text transform="translate(213.50002,182.81538) scale(0.22983,0.22983)" font-size="40" xml:space="preserve" data-paper-data="{&quot;origPos&quot;:null}" fill="#ffffff" fill-rule="nonzero" stroke="none" stroke-width="1" stroke-linecap="butt" stroke-linejoin="miter" stroke-miterlimit="10" stroke-dasharray="" stroke-dashoffset="0" font-family="Sans Serif" font-weight="normal" text-anchor="start" style="mix-blend-mode: normal"><tspan x="0" dy="0">Increases candy per second</tspan><tspan x="0" dy="46.150000000000006px">by 15,000 candy.</tspan></text><path d="M208.01166,201.19214c37.96911,0 89.7537,0 97.68987,0c4.24032,0 6.37975,0.76819 6.37975,5.58228c0,1.37926 -0.17224,10.75061 -0.14088,12.1295c0.05113,2.24869 -1.07557,4.66689 -4.31946,4.76653c-6.86018,0.2107 -61.67399,1.68787 -100.60609,1.24637c-2.152,-0.02441 -4.38607,-2.73462 -4.18671,-5.78165c0.10667,-1.63043 0,-7.83833 0,-11.96202c0,-3.9291 1.16692,-5.98101 5.18354,-5.98101z" data-paper-data="{&quot;origPos&quot;:null,&quot;index&quot;:null}" fill="#000000" stroke="#ffffff" stroke-width="1.5" stroke-linecap="butt"/><text transform="translate(220.54752,217.44794) scale(0.34666,0.34666)" font-size="40" xml:space="preserve" data-paper-data="{&quot;origPos&quot;:null}" fill="#ffffff" fill-rule="nonzero" stroke="none" stroke-width="3" stroke-linecap="butt" stroke-linejoin="miter" stroke-miterlimit="10" stroke-dasharray="" stroke-dashoffset="0" font-family="Sans Serif" font-weight="normal" text-anchor="start" style="mix-blend-mode: normal"><tspan x="0" dy="0">Buy for 2M</tspan></text><path d="M164.5,202.25l-0.5,-19.25h35.5v20.25c0,0 -6.749,5.31918 -18.08268,5.56641c-12.4094,0.2707 -16.91732,-6.56641 -16.91732,-6.56641z" data-paper-data="{&quot;origPos&quot;:null}" fill="#a17e1d" stroke="#8c6e1b" stroke-width="3" stroke-linecap="butt"/><path d="M210.15675,180.5148c0,15.9023 -12.66508,28.79367 -28.28822,28.79367c-15.62316,0 -28.28822,-12.89137 -28.28822,-28.79367c0,-15.9023 12.66508,-28.79367 28.28822,-28.79367c15.62316,0 28.28822,12.89137 28.28822,28.79367z" data-paper-data="{&quot;origPos&quot;:null}" fill="none" stroke="#000000" stroke-width="3.5" stroke-linecap="butt"/><g data-paper-data="{&quot;origPos&quot;:null}" stroke-width="2.5"><g data-paper-data="{&quot;origPos&quot;:null}"><path d="M170.25,180.5v-17.25h5.75v17.25z" data-paper-data="{&quot;origPos&quot;:null}" fill="#ffffff" stroke="#898989" stroke-linecap="butt"/><g data-paper-data="{&quot;origPos&quot;:null}" fill="none" stroke="#ff4c4c" stroke-linecap="round"><path d="M170.5,177.32143l5.28572,-3" data-paper-data="{&quot;origPos&quot;:null}"/><path d="M170.35715,172.03572l5.28572,-3" data-paper-data="{&quot;origPos&quot;:null}"/><path d="M170.21429,167.32143l5.28571,-3" data-paper-data="{&quot;origPos&quot;:null}"/></g></g><path d="M170.25,180.5v-17.25h5.75v17.25z" data-paper-data="{&quot;origPos&quot;:null}" fill="none" stroke="#898989" stroke-linecap="butt"/></g><g data-paper-data="{&quot;origPos&quot;:null}" stroke-width="2.5"><g data-paper-data="{&quot;origPos&quot;:null}"><path d="M187.25,180.5v-17.25h5.75v17.25z" data-paper-data="{&quot;origPos&quot;:null}" fill="#ffffff" stroke="#898989" stroke-linecap="butt"/><g data-paper-data="{&quot;origPos&quot;:null}" fill="none" stroke="#ff4c4c" stroke-linecap="round"><path d="M187.5,177.32143l5.28572,-3" data-paper-data="{&quot;origPos&quot;:null}"/><path d="M187.35715,172.03572l5.28572,-3" data-paper-data="{&quot;origPos&quot;:null}"/><path d="M187.21429,167.32143l5.28571,-3" data-paper-data="{&quot;origPos&quot;:null}"/></g></g><path d="M187.25,180.5v-17.25h5.75v17.25z" data-paper-data="{&quot;origPos&quot;:null}" fill="none" stroke="#898989" stroke-linecap="butt"/></g></g></g></svg>